<?xml version="1.0" encoding="UTF-8"?>
<svg id="Layer_1" data-name="Layer 1" xmlns="http://www.w3.org/2000/svg" viewBox="0 0 614 614">
  <defs>
    <style>
      .cls-1 {
        fill: #fff;
      }
    </style>
  </defs>
  <g>
    <path  fill="#5200FF" stroke="#000" d="m500.1,75.9c0,2.02-4.32,23.44-6.49,34.71-7.07,36.63-14.19,73.25-21.29,109.88-7.83,40.39-15.68,80.77-23.5,121.15-7.92,40.87-15.77,81.75-23.74,122.61-7.88,40.37-15.88,80.71-23.82,121.07-3.37,17.11-18.36,27.87-36.26,24.98-13.46-2.17-26.73-5.51-40.04-8.51-41.08-9.28-82.15-18.66-123.22-27.98-22.08-5.01-44.2-9.86-66.24-15.02-17.22-4.03-27.35-19.35-23.45-36.6,6.75-29.86,14.16-59.57,21.37-89.32,6.04-24.91,12.18-49.79,18.34-74.67,6.87-27.78,13.85-55.53,20.69-83.32,8.95-36.36,17.78-72.74,26.69-109.11,8.13-33.13,16.35-66.23,24.43-99.37,2.95-12.12,5.59-24.32,8.38-36.48,4.58-19.96,18.61-28.61,39.14-24.4,34.4,7.06,68.83,13.96,103.24,20.96,32.46,6.61,64.9,13.29,97.36,19.88,10.63,2.16,19.54,6.91,24.52,16.91,2.02,4.05,4.31,10.31,3.88,12.65Zm-114.58,450.18c.7-1.22,1.95-2.54,2.25-4.05,3.74-18.77,7.34-37.58,10.99-56.37,5.85-30.08,11.74-60.15,17.58-90.23,4.06-20.92,7.96-41.86,12.12-62.76,4.06-20.41,8.49-40.75,12.5-61.17,5.3-26.95,10.34-53.95,15.5-80.92,4.97-25.99,9.91-51.99,14.96-77.97.57-2.92-.06-4.17-3.14-4.8-30.01-6.13-59.99-12.44-89.99-18.61-43.71-8.98-87.45-17.84-131.15-26.92-3.41-.71-4.37.34-5.09,3.32-4.58,18.94-9.34,37.83-13.95,56.76-7.95,32.67-15.71,65.38-23.75,98.03-12.26,49.79-24.77,99.52-37.01,149.31-9.34,38-18.44,76.06-27.65,114.1-2.07,8.55-2.08,8.51,6.8,10.4,19.71,4.21,39.42,8.39,59.1,12.71,28.47,6.25,56.89,12.67,85.37,18.9,20.82,4.55,41.69,8.9,62.54,13.35,10.25,2.19,20.5,4.43,32.01,6.91Zm-126.97,31.57c11.85.17,20.87-8.44,20.99-20.02.12-11.66-9.12-21.23-20.55-21.28-12.15-.06-21.24,8.49-21.48,20.21-.24,11.97,8.69,20.92,21.04,21.09ZM343.9,38.01c-.54.45-2.55,1.66-2.39,2.06.54,1.44,1.62,3.47,2.84,3.74,11.48,2.56,23.02,4.89,34.59,7.04,1.24.23,2.77-1.14,4.17-1.77-.93-1.18-1.68-3.16-2.81-3.41-11.8-2.65-23.66-5.02-36.4-7.66Z"/>
    <path  fill="#5200FF" stroke="#000" class="cls-1" d="m385.52,526.08c-11.51-2.49-21.76-4.72-32.01-6.91-20.84-4.46-41.71-8.8-62.54-13.35-28.47-6.23-56.9-12.65-85.37-18.9-19.68-4.32-39.39-8.5-59.1-12.71-8.88-1.9-8.87-1.85-6.8-10.4,9.21-38.03,18.31-76.1,27.65-114.1,12.24-49.79,24.75-99.52,37.01-149.31,8.04-32.65,15.8-65.36,23.75-98.03,4.6-18.93,9.37-37.82,13.95-56.76.72-2.98,1.68-4.03,5.09-3.32,43.69,9.08,87.43,17.93,131.15,26.92,30,6.17,59.98,12.48,89.99,18.61,3.08.63,3.71,1.88,3.14,4.8-5.05,25.98-9.99,51.98-14.96,77.97-5.16,26.98-10.2,53.98-15.5,80.92-4.01,20.42-8.44,40.76-12.5,61.17-4.15,20.9-8.06,41.84-12.12,62.76-5.84,30.08-11.73,60.15-17.58,90.23-3.66,18.79-7.25,37.59-10.99,56.37-.3,1.51-1.55,2.83-2.25,4.05Zm-39.95-137.22c27.96.71,40.77-13.66,38.91-39.14-1.56-21.37-9.51-40.27-22.85-56.95-13.39-16.74-29.9-24.37-51.45-17.79-1.7.52-4.21-.27-5.89-1.24-6.23-3.58-12.79-5.5-20-5.3-12.07.33-22.1,5.79-31.31,12.84-18.6,14.24-32.34,32.06-37.77,55.24-2.72,11.63.61,21.59,10.52,29.11,6.14,4.66,12.92,7.92,20.37,8.79,10.71,1.26,21.58,1.16,32.32,2.24,9.71.97,19.48,2.12,28.96,4.32,12.92,3,25.29,8.5,38.18,7.88Zm49.79-181.92c.16-.43.19-1.02.5-1.29,8.01-6.93,15.42-14.77,27.02-15.74,1.57-.13,2.92-2.78,4.38-4.26-1.63-1.34-3.1-3.47-4.92-3.83-2.29-.46-5.14-.02-7.27,1.01-4.91,2.38-10.11,4.68-14.18,8.19-14.42,12.48-28.38,25.51-42.6,38.22-4.45,3.98-8.93,7.99-13.85,11.33-4.3,2.93-8.77,0-8.68-5.27.02-1.29.9-2.62.75-3.86-.24-1.9-1.03-3.73-1.58-5.59-1.76.85-4.25,1.23-5.16,2.63-3.05,4.69-2.85,9.79-.23,14.7,2.56,4.79,6.78,6.6,12.03,6.48.94-.02,1.88.09,2.77.14,2.71,26.04,22.14,36.15,37.85,37.13,18.61,1.17,35.61-12.1,40.17-33.66,4.12-19.47-4.39-35.11-26.99-46.36Zm-106.07,33.45c13.5,3.72,21.37-1.75,19.95-13.81-.21-1.83-2.29-3.44-3.51-5.16-1.16,1.66-3.11,3.23-3.3,4.99-.33,3.15-.45,6.84-3.84,7.12-2.32.19-5.61-1.93-7.2-4-4.04-5.24-7.39-11.01-10.99-16.59-9.25-14.37-18.24-28.91-27.84-43.04-3.6-5.3-8.33-10.24-15.13-11.45-1.94-.35-4.27,1.49-6.42,2.33,1.12,1.93,1.79,4.95,3.42,5.61,9.51,3.87,14.1,12.13,19.85,20.62-12.06,1.37-22.06,5.5-29.5,14.69-7.44,9.19-9.92,19.73-9.14,31.28,1.04,15.34,11.97,28.91,26.58,32.59,8.63,2.18,17.16,1.46,25.46-1.85,10.93-4.35,16.93-13.32,21.58-23.35Zm7.8,15.62c4.58,2.88,8.63,4.49,11.31,7.37,2.61,2.81,4.17,2.49,7.09.94,2.71-1.45,6.06-1.66,8.93-2.87,1.12-.47,2.63-2.92,2.4-3.19-1.3-1.58-2.94-3.73-4.69-3.96-6.69-.87-13.47-1.33-20.22-1.37-1.69,0-3.4,2.11-4.82,3.07Z"/>
    <path  fill="#5200FF" stroke="#000" class="cls-1" d="m258.55,557.65c-12.35-.18-21.28-9.12-21.04-21.09.23-11.72,9.32-20.27,21.48-20.21,11.43.06,20.67,9.63,20.55,21.28-.12,11.58-9.14,20.19-20.99,20.02Z"/>
    <path  fill="#5200FF" stroke="#000" class="cls-1" d="m343.9,38.01c12.74,2.63,24.6,5.01,36.4,7.66,1.14.25,3.18,1.61,2.81,3.41s-2.93,2-4.17,1.77c-11.57-2.14-32.93-6.72-34.59-7.04s-3.42-1.68-2.84-3.74,1.52-1.97,2.39-2.06Z"/>
    <path  fill="#5200FF" stroke="#000" d="m345.57,388.86c-12.88.62-25.26-4.88-38.18-7.88-9.48-2.2-19.26-3.34-28.96-4.32-10.74-1.08-21.61-.98-32.32-2.24-7.46-.88-14.24-4.13-20.37-8.79-9.9-7.52-13.24-17.48-10.52-29.11,5.43-23.18,19.17-41,37.77-55.24,9.21-7.05,19.24-12.52,31.31-12.84,7.21-.2,13.77,1.73,20,5.3,1.68.97,4.19,1.76,5.89,1.24,21.54-6.58,38.05,1.04,51.45,17.79,13.34,16.68,21.29,35.58,22.85,56.95,1.85,25.48-10.96,39.84-38.91,39.14Zm-82.24-35.08c-1.7-3.92-3.07-7.24-4.56-10.51-2.24-4.89-6.15-5.92-9.82-2.13-3.07,3.17-6.03,6.7-8.02,10.59-3.67,7.21-1.68,11.48,6.27,13.13,6.46,1.34,13.19,2.37,19.74,2.07,20.99-.95,40.88,3.25,60.66,9.94,7.59,2.57,16.3,2.09,24.52,2.47,3.29.15,5.66-2.36,5.51-5.86-.29-6.37-1.47-12.57-5.78-17.68-3.19-3.78-5.47-3.85-8.99-.12-2.56,2.71-4.95,5.57-7.97,8.99-1.29-2.76-2.19-4.85-3.22-6.86-4.2-8.17-8.74-9.46-16.84-5.18-1.09.58-3.35.44-4.24-.32-9.05-7.74-11.21-8.02-21.47-2.08-.84.49-1.7.94-2.57,1.43-.43-.46-.85-.77-1.1-1.18-5.12-8.54-8.78-8.98-16.18-1.99-1.74,1.64-3.57,3.19-5.94,5.29Zm13.45-66.62c.03.28.09,1.62.28,2.93,1.38,9.47,3.73,10.69,11.14,5.3,3.07-2.24,4.62-1.01,6.6,1.26,6.65,7.59,16.41,9.18,24.62,3.42,4.23-2.97,6.36-2.35,9.07,1.75,2.86,4.34,6.09,4.06,8.92-.44,1.49-2.36,2.6-5.05,3.39-7.73,1.73-5.9.97-8.65-4.88-9.76-7.17-1.36-14.7-.75-22.07-1.09-3.85-.18-7.77-.18-11.53-.93-5.81-1.16-11.42-3.57-17.26-4.21-6.67-.74-8.51,1.69-8.29,9.51Z"/>
    <path  fill="#5200FF" stroke="#000" d="m395.36,206.93c22.6,11.25,31.1,26.89,26.99,46.36-4.56,21.56-21.56,34.83-40.17,33.66-15.71-.99-35.14-11.09-37.85-37.13-.89-.05-1.83-.16-2.77-.14-5.25.12-9.47-1.7-12.03-6.48-2.63-4.92-2.82-10.02.23-14.7.91-1.4,3.39-1.78,5.16-2.63.55,1.86,1.34,3.69,1.58,5.59.15,1.23-.73,2.56-.75,3.86-.09,5.26,4.38,8.19,8.68,5.27,4.91-3.34,9.4-7.36,13.85-11.33,14.22-12.72,28.18-25.74,42.6-38.22,4.06-3.51,9.26-5.82,14.18-8.19,2.13-1.03,4.98-1.46,7.27-1.01,1.82.36,3.3,2.49,4.92,3.83-1.45,1.48-2.81,4.12-4.38,4.26-11.6.98-19.02,8.81-27.02,15.74-.31.27-.34.86-.5,1.29Zm-39.7,37.13c-.83,2.18-2.5,4.37-2.2,6.25.7,4.36,1.52,9.09,3.78,12.75,6.77,10.9,16.86,16.49,29.89,15.07,12.18-1.32,20.4-8.36,24.85-19.62,6.63-16.76.56-36.55-17.4-42.13-5.85-1.82-12.07.64-15.73,6.99,6.01,1.54,11.01,4.3,13.72,10.31,1.62,3.59,1.49,5.36-2.9,6.23-2.3.46-4.27,2.53-6.39,3.87,2.14.9,4.21,2.32,6.42,2.58,4.44.52,5.78,2.54,4.52,6.7-2.08,6.86-6.34,11.82-13.3,13.58-6.81,1.73-13.32,0-17.35-5.89-3.16-4.64-4.93-10.23-7.92-16.69Z"/>
    <path  fill="#5200FF" stroke="#000" d="m289.29,240.38c-4.65,10.02-10.65,18.99-21.58,23.35-8.3,3.31-16.84,4.02-25.46,1.85-14.61-3.68-25.54-17.25-26.58-32.59-.78-11.55,1.7-22.09,9.14-31.28,7.44-9.19,17.44-13.33,29.5-14.69-5.75-8.49-10.34-16.75-19.85-20.62-1.63-.66-2.31-3.68-3.42-5.61,2.15-.84,4.48-2.68,6.42-2.33,6.8,1.21,11.52,6.15,15.13,11.45,9.6,14.13,18.59,28.67,27.84,43.04,3.59,5.58,6.94,11.36,10.99,16.59,1.59,2.06,4.88,4.19,7.2,4,3.39-.28,3.51-3.97,3.84-7.12.19-1.76,2.14-3.33,3.3-4.99,1.22,1.71,3.29,3.33,3.51,5.16,1.42,12.06-6.45,17.53-19.95,13.81Zm-23.98-35.16c-3.68-8.33-8.72-10.87-17.91-8.44-18.65,4.93-28.21,24.83-20.98,43.66,4.72,12.28,16.4,19.63,30.28,17.76,11.88-1.6,21.27-8.95,24.31-22.45.47-2.07-.87-4.55-1.37-6.84-.48.09-.95.19-1.43.28-.2,1.29-.35,2.58-.6,3.85-1.69,8.62-10.65,15.75-19.08,15.2-9.05-.59-15.53-7.65-16.13-17.26-.19-3.03.73-4.34,3.82-4.2,2.75.13,5.52.03,8.28.03.27-.39.55-.78.82-1.17-1.47-1.76-2.71-3.82-4.46-5.23-4.49-3.61-5-5.85-.17-8.94,4.29-2.75,9.47-4.13,14.62-6.26Z"/>
    <path  fill="#5200FF" stroke="#000" d="m297.09,256c1.42-.96,3.13-3.08,4.82-3.07,6.75.04,13.53.5,20.22,1.37,1.75.23,3.39,2.38,4.69,3.96.22.27-1.29,2.72-2.4,3.19-2.88,1.21-6.22,1.42-8.93,2.87-2.91,1.55-4.47,1.87-7.09-.94-2.68-2.88-6.73-4.49-11.31-7.37Z"/>
    <path  fill="#5200FF" stroke="#000" class="cls-1" d="m263.32,353.78c2.36-2.1,4.2-3.64,5.94-5.29,7.4-6.99,11.05-6.55,16.18,1.99.25.41.66.72,1.1,1.18.87-.48,1.73-.94,2.57-1.43,10.27-5.93,12.42-5.66,21.47,2.08.9.77,3.15.9,4.24.32,8.1-4.28,12.64-2.99,16.84,5.18,1.03,2.01,1.93,4.1,3.22,6.86,3.02-3.42,5.41-6.29,7.97-8.99,3.52-3.73,5.81-3.66,8.99.12,4.31,5.11,5.49,11.3,5.78,17.68.16,3.5-2.22,6.01-5.51,5.86-8.22-.38-16.93.1-24.52-2.47-19.78-6.7-39.67-10.9-60.66-9.94-6.54.3-13.28-.73-19.74-2.07-7.95-1.65-9.94-5.91-6.27-13.13,1.98-3.89,4.95-7.43,8.02-10.59,3.67-3.79,7.58-2.76,9.82,2.13,1.49,3.27,2.86,6.59,4.56,10.51Z"/>
    <path  fill="#5200FF" stroke="#000" class="cls-1" d="m276.78,287.16c-.22-7.82,1.62-10.24,8.29-9.51,5.83.65,11.45,3.05,17.26,4.21,3.76.75,7.67.76,11.53.93,7.37.34,14.91-.27,22.07,1.09,5.85,1.11,6.62,3.86,4.88,9.76-.79,2.68-1.9,5.37-3.39,7.73-2.84,4.5-6.06,4.78-8.92.44-2.71-4.1-4.84-4.72-9.07-1.75-8.21,5.76-17.97,4.16-24.62-3.42-1.98-2.27-3.53-3.5-6.6-1.26-7.4,5.4-9.76,4.17-11.14-5.3-.19-1.31-.26-2.65-.28-2.93Z"/>
    <path  fill="#5200FF" stroke="#000" class="cls-1" d="m355.67,244.06c2.99,6.47,4.76,12.06,7.92,16.69,4.03,5.9,10.54,7.62,17.35,5.89,6.96-1.76,11.22-6.72,13.3-13.58,1.26-4.16-.08-6.18-4.52-6.7-2.21-.26-4.29-1.69-6.42-2.58,2.12-1.34,4.1-3.41,6.39-3.87,4.39-.87,4.52-2.65,2.9-6.23-2.71-6.01-7.71-8.77-13.72-10.31,3.65-6.35,9.88-8.81,15.73-6.99,17.95,5.58,24.03,25.37,17.4,42.13-4.46,11.26-12.67,18.3-24.85,19.62-13.02,1.41-23.12-4.17-29.89-15.07-2.27-3.65-3.08-8.38-3.78-12.75-.3-1.87,1.37-4.06,2.2-6.25Z"/>
    <path  fill="#5200FF" stroke="#000" class="cls-1" d="m265.31,205.22c-5.15,2.13-10.33,3.5-14.62,6.26-4.83,3.1-4.32,5.34.17,8.94,1.75,1.41,2.99,3.47,4.46,5.23-.27.39-.55.78-.82,1.17-2.76,0-5.53.1-8.28-.03-3.09-.14-4.01,1.17-3.82,4.2.6,9.6,7.08,16.67,16.13,17.26,8.43.55,17.39-6.59,19.08-15.2.25-1.27.4-2.57.6-3.85.48-.09.95-.19,1.43-.28.5,2.29,1.84,4.77,1.37,6.84-3.04,13.5-12.43,20.86-24.31,22.45-13.89,1.87-25.57-5.48-30.28-17.76-7.23-18.83,2.33-38.73,20.98-43.66,9.19-2.43,14.23.11,17.91,8.44Z"/>
  </g>
  <circle fill="#fff" stroke="#000" class="cls-1" cx="321.79" cy="36.16" r="4.23"/>
</svg>